<svg width="59" height="59" viewBox="0 0 59 59" fill="none" xmlns="http://www.w3.org/2000/svg">
<path d="M29.5998 58.5C37.3459 58.5 44.6283 55.4833 50.1058 50.006C55.5832 44.5285 58.5999 37.2461 58.5999 29.4999C58.5999 21.7539 55.5832 14.4715 50.1058 8.99401C44.6284 3.51656 37.3459 0.5 29.5998 0.5C13.6091 0.5 0.599854 13.5093 0.599854 29.4999C0.599854 37.2461 3.61642 44.5285 9.09386 50.006C14.5713 55.4833 21.8538 58.5 29.5998 58.5Z" fill="#010038"/>
<path d="M1.60352 29.5002C1.60352 22.0222 4.51571 14.9916 9.80363 9.70372C15.0915 4.41568 22.122 1.5036 29.6001 1.5036C37.0781 1.5036 44.1087 4.41568 49.3965 9.70372C54.6844 14.9916 57.5966 22.0221 57.5966 29.5002C57.5966 44.9376 45.0374 57.4968 29.6001 57.4968C22.122 57.4968 15.0915 54.5846 9.80363 49.2967C4.51571 44.0087 1.60352 36.9782 1.60352 29.5002Z" fill="white"/>
<path fill-rule="evenodd" clip-rule="evenodd" d="M29.5998 2.65723C14.7752 2.65723 2.75708 14.6753 2.75708 29.5C2.75708 44.3246 14.7752 56.3428 29.5998 56.3428C44.4244 56.3428 56.4425 44.3246 56.4425 29.5C56.4425 14.6753 44.4244 2.65723 29.5998 2.65723ZM29.5999 46.6463C20.1305 46.6463 12.4537 38.9697 12.4537 29.5001C12.4537 20.0306 20.1305 12.3538 29.5999 12.3538C39.0694 12.3538 46.7462 20.0306 46.7462 29.5001C46.7462 38.9697 39.0695 46.6463 29.5999 46.6463ZM14.7278 12.9329C15.5526 12.4216 16.4312 12.5881 16.9995 13.1405C17.8728 13.9894 17.7444 14.9709 16.9137 15.9609L13.2779 20.2937L7.85826 15.746L11.3059 11.6374C12.0195 10.787 13.0171 10.1079 13.9652 10.9033C13.9827 10.918 13.9996 10.9322 14.016 10.9458C14.2737 11.1608 14.4033 11.2689 14.7374 11.8781C14.821 12.108 14.8854 12.5247 14.7278 12.9329ZM32.3592 6.25487L30.498 11.1882H28.9528L27.0915 6.25487V11.1882H25.677V4.12279H27.8022L29.7253 9.15531L31.6485 4.12279H33.7738V11.1882H32.3592V6.25487ZM46.8531 17.8981L49.5163 14.1276L48.3435 12.6793L44.1017 14.5004L46.8774 10.8694L45.7842 9.51937L41.3517 15.2209L42.6472 16.8079L46.8345 15.0848L46.8496 15.1035L44.2936 18.841L45.5765 20.4381L52.0751 17.288L50.9818 15.938L46.8531 17.8981Z" fill="#010038"/>
<path d="M12.0593 12.6542C12.2992 12.3682 12.8414 12.38 13.1901 12.6725C13.5735 12.9942 13.5744 13.4503 13.3169 13.757L11.2695 16.1969L9.98853 15.122L12.0593 12.6542ZM15.702 15.5326L13.5434 18.105L12.1898 16.9692L14.3659 14.3758C14.6116 14.083 15.1595 13.9977 15.529 14.3079C15.9473 14.6587 15.9887 15.191 15.702 15.5326Z" fill="#010038"/>
<path d="M13.5564 29.5001H29.5996V13.457C20.7393 13.457 13.5564 20.64 13.5564 29.5001ZM29.5996 29.5001V45.5434C38.4598 45.5434 45.6427 38.3605 45.6427 29.5001H29.5996Z" fill="#010038"/>
</svg>
