<svg width="56" height="51" viewBox="0 0 56 51" fill="none" xmlns="http://www.w3.org/2000/svg">
<path fill-rule="evenodd" clip-rule="evenodd" d="M54.3089 48.0514C49.42 43.8596 34.895 31.9316 27.9999 31.9316C21.1017 31.9316 6.5879 43.8515 1.69594 48.0463C1.66655 47.0554 1.63919 46.4535 1.63919 45.5709C1.63919 45.5709 1.51963 44.1139 2.80848 42.6558C13.4132 33.0472 24.5315 28.3457 24.873 28.2018C28.1884 26.8005 28.0019 27.0639 27.9989 21.4404C27.9989 21.4404 28.1468 21.4313 28.241 21.4414C32.9101 21.864 45.4632 34.0473 52.8924 42.284C52.9056 42.2981 54.3586 43.9801 54.3586 45.7533C54.3606 46.5842 54.3363 47.4039 54.3089 48.0514ZM54.1093 41.1755C53.32 40.3 34.7299 19.7797 27.9999 19.7797C21.2719 19.7797 2.68081 40.3 1.89251 41.1745L1.89149 41.1755C1.81449 41.2616 -0.000244141 43.3357 -0.000244141 45.7543C-0.000244141 47.637 0.124385 49.5317 0.126412 49.55C0.130465 49.6371 0.174035 50.4376 0.618851 50.6554C0.690792 50.6909 0.768811 50.7091 0.848858 50.7091C1.01402 50.7091 1.19843 50.6352 1.39804 50.4893C1.59866 50.3119 20.5373 33.5842 27.9999 33.5842C35.4635 33.5842 54.4031 50.3119 54.5926 50.4812C54.7993 50.6331 54.9858 50.7091 55.1529 50.7091C55.234 50.7091 55.31 50.6909 55.3829 50.6564C55.8267 50.4396 55.8703 49.6381 55.8744 49.548C55.8754 49.5338 56 47.639 56 45.7564C56 43.3357 54.1853 41.2616 54.1093 41.1755ZM54.2826 28.5342C49.3987 24.3474 34.888 12.4316 28.0009 12.4316C21.1098 12.4316 6.61019 24.3403 1.72329 28.5301C1.69391 27.5412 1.66655 26.9383 1.66655 26.0578C1.66655 26.0578 1.54699 24.6018 2.83483 23.1457C13.4294 13.5462 24.5366 8.84978 24.8771 8.7059C28.1894 7.30559 28.0029 7.56903 27.9999 1.95158C27.9999 1.95158 28.1468 1.94246 28.2421 1.95259C32.906 2.37512 45.447 14.5463 52.8681 22.7738C52.8812 22.788 54.3332 24.468 54.3332 26.2402C54.3342 27.069 54.3089 27.8877 54.2826 28.5342ZM54.0829 21.6654C53.2936 20.7909 34.7228 0.290863 27.9999 0.290863C21.279 0.290863 2.70615 20.7909 1.91885 21.6643L1.91784 21.6654C1.84083 21.7515 0.0271146 23.8236 0.0271146 26.2402C0.0271146 28.1208 0.152757 30.0135 0.153771 30.0318C0.157824 30.1189 0.201393 30.9183 0.645197 31.1362C0.717137 31.1717 0.795157 31.1889 0.875203 31.1889C1.04036 31.1889 1.22376 31.1149 1.42337 30.969C1.62501 30.7917 20.5444 14.0812 27.9999 14.0812C35.4564 14.0812 54.3768 30.7917 54.5663 30.9609C54.772 31.1129 54.9584 31.1879 55.1256 31.1879C55.2066 31.1879 55.2826 31.1707 55.3556 31.1352C55.7984 30.9184 55.843 30.1179 55.846 30.0277C55.847 30.0135 55.9716 28.1208 55.9716 26.2402C55.9727 23.8236 54.16 21.7515 54.0829 21.6654Z" fill="#010038"/>
</svg>
