<svg width="65" height="25" viewBox="0 0 65 25" fill="none" xmlns="http://www.w3.org/2000/svg">
<path fill-rule="evenodd" clip-rule="evenodd" d="M32.8 0.500122C15.0399 0.500122 0.800293 5.82386 0.800293 12.4986C0.800293 19.1332 15.1572 24.4999 32.8 24.4999C50.4456 24.4999 64.7996 19.116 64.7996 12.4986C64.7996 5.8811 50.4456 0.500122 32.8 0.500122ZM32.8004 2.46366C16.46 2.46366 3.21643 6.97739 3.21643 12.5043C3.21643 18.0284 16.46 22.545 32.8004 22.545C49.1408 22.545 62.3844 18.0284 62.3844 12.5043C62.3844 6.98025 49.138 2.46366 32.8004 2.46366ZM32.8004 23.4552C15.8646 23.4552 2.13737 18.5522 2.13737 12.5043C2.13737 6.4536 15.8646 1.55347 32.8004 1.55347C49.7333 1.55347 63.4605 6.4536 63.4605 12.5043C63.4605 18.5522 49.7333 23.4552 32.8004 23.4552ZM29.5488 9.91979C29.5688 10.0257 29.6118 10.0457 29.6604 10.0343C29.9274 9.96159 30.1592 9.79489 30.313 9.56487C30.4561 9.35879 30.5219 9.06112 30.3817 8.94091C30.2558 8.83501 30.0525 8.86363 29.9008 8.99815C29.772 9.11182 29.6726 9.25507 29.6113 9.4156C29.55 9.57613 29.5285 9.74915 29.5488 9.91979ZM17.6048 19.1047C15.8588 19.1161 14.3189 18.0371 14.1415 16.1652C14.0393 15.1917 14.3195 14.2167 14.9229 13.4461C15.4438 12.7677 16.3253 12.2067 17.0695 12.0693C17.3099 12.0235 17.6362 12.0521 17.7708 12.2124C17.9826 12.4586 17.9225 12.7276 17.7107 12.8364C17.1411 13.1255 16.457 13.6235 16.1193 14.3019C15.9633 14.5901 15.8891 14.9156 15.9047 15.243C15.9204 15.5704 16.0252 15.8873 16.208 16.1594C16.9092 17.2185 18.867 17.2471 20.6845 15.5584C21.1367 15.1434 21.5374 14.7455 21.9467 14.2761C22.7482 13.3602 23.0143 13.0253 24.0791 11.5484C24.0905 11.5312 24.0963 11.5083 24.0905 11.4997C24.082 11.4797 24.0676 11.4768 24.0362 11.4711C23.3263 11.494 22.7052 11.7058 22.1042 12.1552C21.9324 12.2811 21.6806 12.264 21.5718 12.0979C21.4516 11.909 21.5374 11.6629 21.7378 11.5255C22.6142 10.9135 23.5658 10.7573 24.5415 10.5971C24.6428 10.5805 24.7444 10.5638 24.8462 10.5466C24.8462 10.5466 24.9206 10.5466 24.9836 10.4693C25.1678 10.2316 25.3332 10.0043 25.4976 9.77849L25.4976 9.77845C25.729 9.46051 25.9582 9.14564 26.2343 8.80925C26.7123 8.22535 27.3277 7.68725 27.7971 7.28368C28.3586 6.80278 28.7472 6.59461 29.114 6.39817C29.1773 6.36428 29.2399 6.33074 29.3026 6.29621C29.4171 6.23897 29.2883 6.16741 29.254 6.16741C29.0784 6.13439 28.9022 6.10066 28.7257 6.06685C26.4999 5.64053 24.2081 5.20158 22.0097 6.01571C20.3668 6.62823 19.6455 7.93341 19.9918 8.80352C20.238 9.42176 21.0509 9.51908 21.8122 9.14699C22.4419 8.84073 23.0287 8.33984 23.4437 7.6987C23.6727 7.34093 24.1621 7.59853 23.8988 8.21963C23.2033 9.8511 21.878 11.1448 20.2638 11.1992C18.887 11.245 17.9997 10.2318 18.0026 8.98384C18.0083 6.52233 20.7503 4.90231 23.6269 4.65902C26.0538 4.45878 28.3911 4.85113 30.7554 5.24801L30.7554 5.24801C31.7705 5.41842 32.7906 5.58965 33.8249 5.71518C36.4639 6.03289 38.9941 6.04147 41.6474 5.42896C41.9622 5.36313 42.1797 5.56348 42.1626 5.87833C42.1339 6.33628 41.779 6.77707 40.9061 7.2522C39.9129 7.79888 38.8739 7.96489 37.7862 7.97348C35.9851 7.98921 34.2678 7.51054 32.5478 7.03117C31.7642 6.81274 30.98 6.59417 30.1871 6.42215C30.1876 6.44295 30.1891 6.46444 30.1907 6.4861C30.1974 6.58075 30.2043 6.67877 30.1298 6.737C28.7273 7.7674 27.4594 8.81783 26.6093 10.2919C26.5807 10.3262 26.5978 10.3606 26.6465 10.3548C26.8501 10.3446 27.0479 10.3356 27.242 10.3268C27.7518 10.3038 28.2363 10.2818 28.7359 10.2404C28.8533 10.2318 28.859 10.2031 28.8504 10.1144C28.8132 9.84225 28.8422 9.56513 28.9348 9.30654C29.0275 9.04795 29.1812 8.81551 29.3828 8.62893C29.8407 8.21963 30.4132 8.17097 30.7938 8.46864C31.2232 8.80352 31.186 9.41031 30.9513 9.86255C30.8455 10.0616 30.7008 10.2375 30.5258 10.3796C30.3507 10.5217 30.1489 10.6271 29.9323 10.6897C29.9323 10.6897 29.8522 10.7069 29.8636 10.7785C29.8722 10.8468 30.0613 10.9774 30.2215 11.088C30.3296 11.1627 30.4245 11.2282 30.4418 11.2593C30.4847 11.3337 30.4618 11.4454 30.3846 11.5312C30.3539 11.5685 30.3155 11.5986 30.272 11.6193C30.2285 11.6401 30.1809 11.6511 30.1327 11.6514C30.0467 11.6514 29.9929 11.6219 29.8855 11.5627L29.8751 11.557C29.6022 11.4112 29.3594 11.215 29.1595 10.9788C29.0908 10.8958 29.0565 10.8929 28.8933 10.9044C28.1492 10.9473 26.9871 11.059 26.2029 11.1563C26.0111 11.1792 25.9825 11.2164 25.9453 11.2822L25.8618 11.4197C24.6322 13.4471 23.3195 15.6115 21.8809 17.0725C20.3067 18.6725 18.9958 19.0932 17.6048 19.1047ZM45.4055 15.0402C45.4141 15.0975 45.4857 15.149 45.5544 15.1748C45.583 15.1833 45.5944 15.2005 45.5658 15.2606C45.3937 15.6246 45.2363 15.8575 45.0375 16.1519C45.0049 16.2001 44.9712 16.2501 44.9361 16.3025C44.7071 16.6459 44.4467 16.9121 44.1347 17.1697C43.6596 17.5618 43.0041 17.9855 42.4603 17.7021C42.2199 17.5762 42.1168 17.2384 42.1197 16.9665C42.1311 16.1966 42.4746 15.4095 43.1043 14.6338C43.8742 13.6893 44.7243 13.197 45.2796 13.4632C45.8578 13.7408 45.6746 14.4077 45.417 14.9315C45.3992 14.9649 45.3951 15.0039 45.4055 15.0402ZM51.5994 9.0582C51.6394 8.98378 51.5994 8.9294 51.5049 8.9294H49.8878C49.7676 8.9294 49.7046 8.94657 49.6502 9.0582C49.529 9.28931 48.5279 10.8058 47.7281 12.0173L47.7277 12.018C47.2994 12.6667 46.929 13.2279 46.7823 13.4574C46.7136 13.5576 46.6248 13.5433 46.6162 13.4288C46.5733 13.0395 46.2356 12.5902 45.7032 12.3755C45.3196 12.2206 44.9016 12.1712 44.4925 12.2324C43.7483 12.3354 43.0871 12.7276 42.5032 13.1683C42.1366 13.4475 41.7911 13.7612 41.4414 14.0787L41.4414 14.0787C40.9557 14.5198 40.462 14.968 39.8929 15.3408C39.3576 15.6871 38.6278 15.9905 38.1383 15.5383C37.6976 15.129 37.7462 14.2159 38.4246 13.5118C38.4961 13.4374 38.582 13.5004 38.5677 13.5662C38.5311 13.7193 38.5357 13.8794 38.5809 14.0302C38.6262 14.181 38.7104 14.3171 38.8253 14.4249C39.1201 14.6882 39.5408 14.7197 39.9043 14.5393C40.1077 14.4333 40.2822 14.2795 40.4129 14.091C40.5435 13.9025 40.6263 13.6851 40.6542 13.4574C40.6782 13.2899 40.6675 13.1192 40.6225 12.9561C40.5776 12.7929 40.4995 12.6408 40.3932 12.5092C40.2868 12.3775 40.1544 12.2693 40.0043 12.1911C39.8542 12.113 39.6896 12.0666 39.5208 12.0549C38.9598 12.0149 38.4188 12.2095 37.8922 12.6446C37.6437 12.8451 37.4275 13.0825 37.251 13.3487C37.1938 13.4288 37.1108 13.4345 37.1137 13.32C37.1394 12.3984 36.7587 11.8803 35.9974 11.8632C35.4078 11.8489 34.7752 12.1694 34.2829 12.5616C33.8837 12.8822 33.5208 13.2816 33.1532 13.6861L33.1531 13.6861L33.1531 13.6861C33.0252 13.8269 32.8967 13.9683 32.7659 14.1072C32.7058 14.1758 32.6514 14.173 32.6314 14.0442C32.6342 13.4721 32.4787 12.9104 32.182 12.4213C32.1296 12.3452 32.051 12.2912 31.9612 12.2696C31.8714 12.2479 31.7768 12.2601 31.6955 12.304C31.6835 12.3101 31.6675 12.3181 31.6481 12.3277L31.6479 12.3277C31.5324 12.3848 31.2994 12.5 31.123 12.6446C31.02 12.7304 30.9799 12.8506 31.0257 13.0081C31.2976 13.9182 31.2375 14.9544 30.8683 15.8302C30.5277 16.6316 29.8694 17.3558 29.0937 17.5991C28.5842 17.7622 28.0519 17.6821 27.7227 17.227C27.2733 16.603 27.4536 15.5182 28.1263 14.6138C28.7216 13.8181 29.5803 13.3143 30.4361 12.988C30.5363 12.9508 30.5592 12.885 30.5305 12.7991L30.3788 12.3812C30.2987 12.1694 30.0783 12.1379 29.8121 12.1666C29.1882 12.2381 28.6272 12.4528 28.0719 12.7476C26.6207 13.5261 25.8909 15.0316 25.5732 15.8388C25.4652 16.1408 25.3117 16.4246 25.1181 16.6803C24.8891 16.9665 24.6029 17.2298 24.0762 17.6906C24.0475 17.7168 24.0279 17.7515 24.0202 17.7895C24.0125 17.8276 24.0171 17.8672 24.0333 17.9025C24.141 18.0987 24.277 18.2781 24.4369 18.4348C24.5227 18.4778 24.6229 18.4177 24.663 18.389C25.0293 18.14 25.4701 17.745 25.6848 17.476C25.7592 17.3844 25.8394 17.4245 25.8794 17.5618C25.9764 17.9193 26.1598 18.2474 26.4133 18.5174C26.6668 18.7874 26.9828 18.991 27.3334 19.1103C28.6644 19.5597 30.0468 18.91 31.0887 17.7765C31.5337 17.2949 31.7881 16.9261 31.9845 16.6413L31.9846 16.6413C32.08 16.5029 32.1617 16.3844 32.245 16.2824C32.3113 16.1998 32.3877 16.1014 32.4731 15.9913L32.4732 15.9912C32.9408 15.3887 33.6805 14.4356 34.5348 13.7894C34.9069 13.5061 35.3448 13.2914 35.5652 13.4345C35.7427 13.549 35.7999 13.8152 35.5165 14.3333C34.8745 15.5067 34.0436 16.8068 33.4406 17.7503L33.4406 17.7504L33.4403 17.7508C33.0757 18.3214 32.7944 18.7616 32.6887 18.9643C32.6371 19.0559 32.6829 19.1303 32.7802 19.1303H34.343C34.426 19.1246 34.4632 19.0874 34.5033 19.0302C34.6593 18.7855 34.8134 18.5432 34.9666 18.3025L34.9667 18.3023C35.5893 17.3237 36.1951 16.3714 36.836 15.3952C36.8818 15.3207 36.9219 15.378 36.9219 15.4095C36.9419 15.69 37.0078 16.0764 37.1795 16.3311C37.3032 16.539 37.4794 16.7109 37.6903 16.8294C37.9013 16.948 38.1397 17.009 38.3816 17.0066C38.7173 17.0112 39.0498 16.9408 39.3548 16.8005C39.6868 16.6774 39.9558 16.5171 40.1562 16.3712C40.2764 16.2882 40.2993 16.4284 40.2936 16.4484C40.1104 17.4302 40.3365 18.5951 41.3154 19.0817C42.4832 19.6541 43.7683 18.847 44.5096 18.1143C44.5812 18.0427 44.6585 18.0513 44.6671 18.203C44.6842 18.4835 44.8102 18.8126 45.0392 19.0473C45.6574 19.6684 46.9082 19.4194 48.1618 18.4491C48.969 17.828 49.8105 16.9493 50.5718 16.0191C50.6005 15.9848 50.6234 15.9275 50.5661 15.8674C50.4959 15.7937 50.4052 15.7134 50.3191 15.6373L50.3191 15.6373L50.319 15.6372C50.2648 15.5893 50.2125 15.5431 50.1683 15.5011C50.1167 15.4553 50.0395 15.4696 49.9965 15.5011C49.777 15.7101 49.5635 15.9271 49.3476 16.1467L49.3476 16.1467C48.795 16.7084 48.2263 17.2866 47.4978 17.7908C47.1543 18.0284 46.6105 18.2202 46.3644 17.891C46.2671 17.7622 46.2785 17.5847 46.373 17.3472C46.5867 16.8139 49.1078 12.9174 50.5723 10.6538L50.5724 10.6537C51.1281 9.79483 51.5317 9.17107 51.5994 9.05534V9.0582Z" fill="#010038"/>
</svg>
