<svg width="18" height="20" viewBox="0 0 18 20" fill="none" xmlns="http://www.w3.org/2000/svg">
<path fill-rule="evenodd" clip-rule="evenodd" d="M16.4595 3.69669L10.3786 1.09061C9.49822 0.713287 8.50162 0.713286 7.6212 1.09061L1.54035 3.69669C1.11138 3.88053 0.833252 4.30233 0.833252 4.76903V10.8974C0.833252 13.1581 1.92501 15.2796 3.76459 16.5935L7.6437 19.3643C8.45499 19.9438 9.54485 19.9438 10.3561 19.3643L14.2353 16.5935C16.0748 15.2796 17.1666 13.1581 17.1666 10.8974V4.76903C17.1666 4.30233 16.8885 3.88053 16.4595 3.69669ZM13.2808 8.1247C13.6258 7.69343 13.5559 7.06414 13.1246 6.71913C12.6934 6.37412 12.0641 6.44404 11.7191 6.87531L7.75034 11.8362L6.20703 10.2929C5.8165 9.90237 5.18334 9.90237 4.79281 10.2929C4.40229 10.6834 4.40229 11.3166 4.79281 11.7071L6.73113 13.6454C7.3633 14.2776 8.40461 14.2199 8.9631 13.5218L13.2808 8.1247Z" fill="#3B3D58"/>
</svg>
