<svg width="71" height="21" viewBox="0 0 71 21" fill="none" xmlns="http://www.w3.org/2000/svg">
<path d="M13.0033 19.8706C12.6025 19.8706 12.4021 19.7225 12.4021 19.4262V19.3217C12.4021 19.1474 12.5676 18.8773 12.8987 18.5114C13.2473 18.1454 13.4215 17.7621 13.4215 17.3613V5.0802C13.4215 4.62713 13.2473 4.21762 12.8987 3.85168C12.5676 3.48573 12.4021 3.23306 12.4021 3.09365V2.98909C12.4021 2.77998 12.5764 2.60572 12.9249 2.46631L16.2184 0.845703C16.5669 0.706296 16.8283 0.68887 17.0025 0.793426C17.1942 0.897981 17.2901 1.07224 17.2901 1.3162V17.3613C17.2901 17.7621 17.473 18.1454 17.839 18.5114C18.2224 18.8773 18.414 19.1474 18.414 19.3217V19.4262C18.414 19.7225 18.2136 19.8706 17.8128 19.8706H13.0033Z" fill="#010039"/>
<path d="M20.4862 19.8706C20.1028 19.8706 19.9111 19.7225 19.9111 19.4262V19.3217C19.9111 19.1474 20.0767 18.8773 20.4077 18.5114C20.7388 18.1454 20.9044 17.7533 20.9044 17.3351V11.4277C20.9044 10.9921 20.7388 10.5826 20.4077 10.1992C20.0767 9.81583 19.9111 9.55445 19.9111 9.41504V9.33662C19.9111 9.16236 20.0941 8.97939 20.46 8.7877L23.7274 7.16709C24.0585 7.02769 24.3199 7.01897 24.5116 7.14095C24.7032 7.24551 24.7991 7.42848 24.7991 7.68987V17.3351C24.7991 17.7533 24.9821 18.1454 25.348 18.5114C25.7139 18.8773 25.8969 19.1474 25.8969 19.3217V19.4262C25.8969 19.7225 25.6965 19.8706 25.2957 19.8706H20.4862Z" fill="#010039"/>
<path d="M32.5123 20.132C31.2925 20.132 30.3253 19.7486 29.6109 18.9819C28.9138 18.1977 28.5653 17.0737 28.5653 15.61V8.83998H27.3368C26.9883 8.83998 26.814 8.66572 26.814 8.3172V7.87284C26.814 7.5069 26.9883 7.32393 27.3368 7.32393H27.9903C28.7047 7.32393 29.3059 7.08868 29.7939 6.61818C30.2992 6.14768 30.6216 5.52034 30.761 4.73618C30.8481 4.31795 31.0485 4.10884 31.3622 4.10884H31.885C32.2683 4.10884 32.46 4.31795 32.46 4.73618L32.4862 7.32393H38.0989C38.2383 7.32393 38.3603 7.3762 38.4648 7.48076C38.5694 7.58531 38.6217 7.71601 38.6217 7.87284V8.3172C38.6217 8.47404 38.5694 8.60473 38.4648 8.70929C38.3603 8.79642 38.2383 8.83998 38.0989 8.83998H32.4862V15.6622C32.4862 16.1676 32.6081 16.5771 32.8521 16.8908C33.1135 17.187 33.4359 17.3351 33.8192 17.3351C34.7254 17.3351 35.3179 16.943 35.5967 16.1589C35.7535 15.9323 35.9452 15.8452 36.1717 15.8975C36.4157 15.9323 36.5377 16.0717 36.5377 16.3157C36.5377 17.3264 36.1717 18.2151 35.4399 18.9819C34.7254 19.7486 33.7495 20.132 32.5123 20.132Z" fill="#010039"/>
<path d="M42.6462 20.132C41.4264 20.132 40.4593 19.7486 39.7448 18.9819C39.0478 18.1977 38.6993 17.0737 38.6993 15.61V8.83998H37.4707C37.1222 8.83998 36.9479 8.66572 36.9479 8.3172V7.87284C36.9479 7.5069 37.1222 7.32393 37.4707 7.32393H38.1242C38.8387 7.32393 39.4399 7.08868 39.9278 6.61818C40.4331 6.14768 40.7555 5.52034 40.8949 4.73618C40.9821 4.31795 41.1824 4.10884 41.4961 4.10884H42.0189C42.4023 4.10884 42.5939 4.31795 42.5939 4.73618L42.6201 7.32393H45.6261C45.7655 7.32393 45.8875 7.3762 45.992 7.48076C46.0966 7.58531 46.1488 7.71601 46.1488 7.87284V8.3172C46.1488 8.47404 46.0966 8.60473 45.992 8.70929C45.8875 8.79642 45.7655 8.83998 45.6261 8.83998H42.6201V15.6622C42.6201 16.1676 42.7421 16.5771 42.986 16.8908C43.2474 17.187 43.5698 17.3351 43.9532 17.3351C44.8593 17.3351 45.4518 16.943 45.7306 16.1589C45.8875 15.9323 46.0791 15.8452 46.3057 15.8975C46.5496 15.9323 46.6716 16.0717 46.6716 16.3157C46.6716 17.3264 46.3057 18.2151 45.5738 18.9819C44.8593 19.7486 43.8835 20.132 42.6462 20.132Z" fill="#010039"/>
<path d="M58.1672 15.8975C58.3241 15.6884 58.5157 15.6187 58.7423 15.6884C58.9688 15.7581 59.0734 15.9236 59.0559 16.185C58.9688 17.0912 58.446 17.9799 57.4876 18.8512C56.5292 19.705 55.2832 20.132 53.7497 20.132C51.9026 20.132 50.3865 19.5221 49.2016 18.3023C48.0166 17.0824 47.4241 15.4793 47.4241 13.4927C47.4241 11.6281 48.0428 10.0946 49.28 8.89226C50.5172 7.67245 52.0072 7.06254 53.7497 7.06254C55.3355 7.06254 56.5553 7.4372 57.4092 8.18651C58.2631 8.93583 58.69 9.79841 58.69 10.7743C58.69 11.5759 58.3066 12.1509 57.5399 12.4994L51.737 15.1395C52.4515 16.6555 53.6016 17.4135 55.1874 17.4135C55.8496 17.4135 56.4421 17.2741 56.9648 16.9953C57.505 16.6991 57.9058 16.3331 58.1672 15.8975ZM53.2792 8.21265C52.5996 8.21265 52.0594 8.54374 51.6586 9.20593C51.2578 9.85069 51.0574 10.6784 51.0574 11.6891C51.0574 12.543 51.1446 13.2923 51.3188 13.9371L54.6907 12.238C55.1438 12.0115 55.3704 11.602 55.3704 11.0095C55.3704 10.417 55.1787 9.80712 54.7953 9.17979C54.4119 8.53503 53.9066 8.21265 53.2792 8.21265Z" fill="#010039"/>
<path d="M68.3669 7.06254C69.1162 7.06254 69.7 7.28908 70.1182 7.74215C70.5539 8.1778 70.7717 8.74414 70.7717 9.44118C70.7717 10.8178 70.2141 11.5061 69.0988 11.5061C68.6457 11.5061 68.2885 11.3929 68.0271 11.1663C67.7831 10.9224 67.635 10.661 67.5827 10.3822C67.5305 10.1034 67.4259 9.85069 67.2691 9.62415C67.1122 9.38019 66.877 9.25821 66.5633 9.25821C66.0928 9.25821 65.7443 9.53702 65.5178 10.0947C65.2912 10.6523 65.1779 11.3319 65.1779 12.1335V17.3613C65.1779 17.6749 65.2825 17.9537 65.4916 18.1977C65.7182 18.4242 65.936 18.6246 66.1451 18.7989C66.3716 18.9732 66.4849 19.1474 66.4849 19.3217V19.4262C66.4849 19.7225 66.2932 19.8706 65.9099 19.8706H61.0742C60.6734 19.8706 60.4729 19.7225 60.4729 19.4262V19.3217C60.4729 19.1474 60.6385 18.8773 60.9696 18.5114C61.3181 18.1454 61.4924 17.7621 61.4924 17.3613V11.2448C61.4924 10.8265 61.292 10.4519 60.8912 10.1208C60.4904 9.7897 60.29 9.53702 60.29 9.36276V9.25821C60.29 9.01424 60.473 8.80513 60.8389 8.63087L63.9756 7.16709C64.5332 6.9057 64.812 7.07996 64.812 7.68987V9.65029C65.4045 7.92512 66.5895 7.06254 68.3669 7.06254Z" fill="#010039"/>
<path d="M22.8636 5.4681C23.6304 5.4681 24.2403 5.25899 24.6933 4.84077C25.1638 4.40512 25.3991 3.84749 25.3991 3.16788C25.3991 2.5057 25.1638 1.96549 24.6933 1.54727C24.2403 1.11162 23.6304 0.893799 22.8636 0.893799C22.0969 0.893799 21.4696 1.11162 20.9816 1.54727C20.5111 1.96549 20.2759 2.5057 20.2759 3.16788C20.2759 3.84749 20.5111 4.40512 20.9816 4.84077C21.4696 5.25899 22.0969 5.4681 22.8636 5.4681Z" fill="#5B93FF"/>
<path d="M10.4393 1.62661C9.67259 1.0167 8.74902 0.711746 7.66861 0.711746C6.03057 0.711746 4.78462 1.17353 3.93075 2.09711C3.07688 3.02068 2.64994 4.21436 2.64994 5.67814V7.32489H1.49423C1.3374 7.32489 1.2067 7.37716 1.10215 7.48172C0.99759 7.58628 0.945312 7.70826 0.945312 7.84767V8.3443C0.945312 8.6754 1.12828 8.84094 1.49423 8.84094H2.64994V17.3361C2.64994 17.7543 2.47568 18.1464 2.12716 18.5123C1.77865 18.8783 1.60439 19.1484 1.60439 19.3226V19.4272C1.60439 19.7234 1.78736 19.8716 2.1533 19.8716H7.25039C7.58148 19.8716 7.74703 19.7234 7.74703 19.4272V19.3226C7.74703 19.1484 7.63376 18.9741 7.40722 18.7999C7.19811 18.6256 6.98028 18.4165 6.75375 18.1725C6.54464 17.9286 6.44008 17.6497 6.44008 17.3361V8.84094H9.52447C9.66388 8.84094 9.78586 8.79738 9.89042 8.71025C9.99497 8.60569 10.0472 8.48371 10.0472 8.3443V7.84767C10.0472 7.70826 9.99497 7.58628 9.89042 7.48172C9.78586 7.37716 9.66388 7.32489 9.52447 7.32489H6.33553C6.03182 6.37626 5.54218 3.20054 6.03182 2.33018C6.24593 1.94958 6.56331 1.75512 6.99896 1.75512C7.3649 1.75512 7.66266 1.87713 7.88145 2.09711C8.27866 2.49645 8.49519 3.29702 8.69067 3.94861C9.03748 5.10464 10.4861 5.50565 11.2339 4.75783C11.4651 4.52662 11.6156 4.11852 11.6156 3.77C11.6156 2.95098 11.2235 2.23652 10.4393 1.62661Z" fill="#010039"/>
</svg>
