<svg width="60" height="61" viewBox="0 0 60 61" fill="none" xmlns="http://www.w3.org/2000/svg">
<path fill-rule="evenodd" clip-rule="evenodd" d="M0 30.5C0 47.0681 13.4316 60.5001 30.0001 60.5001C46.5688 60.5001 60.0001 47.0681 60.0001 30.5C60.0001 13.9316 46.5688 0.499939 30.0001 0.499939C13.4316 0.499939 0 13.9316 0 30.5ZM5.65161 45.1129L30.0083 35.0318L54.4689 44.9569C49.3892 53.6052 40.1154 58.9198 30.1121 58.9457C20.0832 58.9976 10.7835 53.736 5.65161 45.1129ZM29.6707 2.20083L25.7893 27.9119L5.28836 44.4796C0.364708 35.7528 0.416942 25.0725 5.44438 16.3979C10.4459 7.72329 19.6674 2.3309 29.6707 2.20083ZM54.8331 44.2994L34.098 28.253L30.3986 2.20287C35.2984 2.27781 40.0954 3.62 44.3226 6.09879C48.5498 8.57759 52.0633 12.1086 54.5211 16.348C59.5482 24.9704 59.6527 35.5729 54.8331 44.2994Z" fill="#010038"/>
</svg>
