<svg width="58" height="63" viewBox="0 0 58 63" fill="none" xmlns="http://www.w3.org/2000/svg">
<path fill-rule="evenodd" clip-rule="evenodd" d="M29.0003 0.5C38.0394 0.5 47.4215 1.27169 56.9446 2.91528C57.0867 6.73287 57.248 12.6338 56.9771 17.6412C56.3701 28.8055 53.913 37.4709 49.2417 44.912C44.5851 52.3315 37.3745 58.7111 29.0003 62.5C20.6262 58.7111 13.4149 52.3315 8.75826 44.912C4.08761 37.4709 1.62987 28.8055 1.02357 17.6412C0.751336 12.6338 0.913272 6.73287 1.05545 2.91528C10.5785 1.27169 19.9612 0.5 29.0003 0.5ZM29.0003 1.57551C20.0894 1.57551 11.0426 2.33316 2.09783 3.82867C1.90147 9.49219 1.90147 13.9985 2.09656 17.5831C2.69202 28.5572 5.09812 37.0598 9.66804 44.3401C14.2373 51.6198 21.089 57.6331 29.0003 61.3173C36.911 57.6331 43.7633 51.6198 48.3326 44.3401C52.9025 37.0598 55.308 28.5572 55.9041 17.5831C56.0992 13.9985 56.0992 9.49219 55.9028 3.82867C46.9581 2.33316 37.9106 1.57551 29.0003 1.57551ZM28.9224 34.1767C28.9224 34.1767 29.0984 35.2216 29.1519 35.5248C29.1819 35.6965 29.1883 35.7424 29.1449 35.9109C29.0043 36.4528 28.3547 39.3088 27.8346 42.2324L27.7537 42.6943C27.5412 43.9257 27.3577 45.1481 27.2508 46.1937C27.1902 46.788 27.21 46.9303 27.3668 47.4576C27.8112 48.9473 29.4548 52.8396 29.7703 53.5494C29.8054 53.6279 29.8265 53.7102 29.8367 53.7951L29.9552 54.713C29.4286 53.917 26.5673 48.6531 25.4433 45.738C25.3107 45.3946 25.2852 45.2255 25.4319 44.5942C26.2135 41.2451 28.3282 35.5541 28.9224 34.1767ZM24.7497 26.0864C24.7497 26.0864 24.9696 26.7993 25.1816 27.5734L25.2557 27.8481C25.3897 28.3525 25.5091 28.8505 25.5523 29.1655C25.5938 29.4687 25.5868 29.5504 25.479 29.8408C25.2178 30.5365 24.737 31.6555 24.2241 32.7994L24.0029 33.2901C23.3736 34.6779 22.7365 36.0187 22.4271 36.599C22.2747 36.885 22.1313 37.0713 21.8444 37.363C21.1896 38.0301 19.9362 39.2907 19.1603 39.996C18.8785 40.2526 18.8027 40.4715 18.7453 40.8034C18.6528 41.3364 18.561 42.2459 18.5355 42.7157C18.5132 43.1287 18.5802 43.3221 18.8103 43.7312C20.1778 46.1727 24.7433 51.7896 26.0439 52.9692C26.1383 53.0547 26.2071 53.1121 26.406 53.2443C26.5973 53.3719 27.2208 53.7766 27.2208 53.7766C27.2457 53.7938 27.2667 53.8168 27.2826 53.843L27.5083 54.2406C27.5083 54.2406 27.4873 54.2302 27.4492 54.2113L27.3518 54.1628C27.2733 54.1237 27.1697 54.0721 27.0506 54.0125L26.7608 53.8673C26.3165 53.6442 25.7868 53.3758 25.5084 53.2258C25.3936 53.1638 25.2859 53.0911 25.1858 53.0075C23.6627 51.7411 18.9952 46.2742 17.6226 43.9917C17.2802 43.4217 17.2451 43.2372 17.291 42.6978C17.3771 41.6938 17.5104 40.4313 17.627 39.8779C17.6978 39.5441 17.7711 39.3481 18.0268 39.0532C18.8859 38.0634 19.9338 36.7566 20.9549 35.4158L21.3139 34.9416C22.8614 32.8847 24.2869 30.8258 24.8192 29.777C24.9409 29.5383 24.9511 29.4553 24.9537 29.23C24.9607 28.5764 24.7522 27.3036 24.6974 26.9819C24.6891 26.9315 24.6866 26.8805 24.691 26.8294L24.7497 26.0864ZM37.4881 24.8597L37.8827 25.0314C37.9994 25.0818 38.1059 25.1559 38.1938 25.2478C40.6133 27.7754 42.5483 30.3962 42.9359 31.0868C43.0105 31.2196 43.0615 31.3524 43.08 31.5043C43.5148 35.1904 43.1412 39.0954 42.2531 42.4924C42.1728 42.7988 42.0829 42.9558 41.7883 43.1773C40.8402 43.8911 39.4248 45.0294 38.0173 46.19L37.5736 46.5567C35.8781 47.9619 34.2673 49.3376 33.5838 49.9706C33.4123 50.1301 33.2624 50.3101 33.14 50.5099C32.8195 51.0314 32.3301 51.9288 32.0898 52.3743L32.0227 52.499C31.9745 52.5887 31.9465 52.6411 31.9465 52.6411C31.6278 51.9448 30.9328 50.2457 30.6944 49.5589C30.6166 49.3348 30.6026 49.2174 30.6848 48.9174C31.0737 47.4934 32.9118 43.3534 33.2694 42.6047L33.2701 42.9111C33.2701 42.9558 33.2631 42.9998 33.249 43.042C33.0877 43.5315 32.0996 46.7944 31.8987 48.2095C31.8541 48.5242 31.8579 48.6091 31.8987 48.918C31.9867 49.5786 32.3813 50.7901 32.3813 50.7901C32.3813 50.7901 32.6153 50.3012 32.8334 49.9706C32.9405 49.8084 33.0049 49.7306 33.1796 49.5569C34.0632 48.6821 35.5707 47.3299 37.1409 45.9701L37.6968 45.4906C38.9029 44.4543 40.107 43.446 41.0583 42.6756C41.3057 42.4752 41.3981 42.3411 41.453 41.9607C41.7258 40.0867 41.8049 36.7229 41.6404 34.2751C41.6092 33.813 41.4594 33.3662 41.1992 32.9825C40.6025 32.0998 39.8891 31.2643 38.8072 30.1913C38.6529 30.0375 38.5477 29.8409 38.5082 29.6264C38.1926 27.9414 37.4881 24.8597 37.4881 24.8597ZM17.0279 28.7584C17.1783 28.7099 17.3383 28.7041 17.4914 28.7411C18.1812 28.9071 19.6412 29.2652 20.7448 29.5479C20.8997 29.5875 21.0928 29.7324 21.1751 29.8696L21.4154 30.2698C21.4996 30.4103 21.5053 30.5826 21.4307 30.7281C21.2301 31.1174 20.944 31.6445 20.6415 32.1881L20.4127 32.5969C19.9915 33.3451 19.572 34.067 19.3339 34.4468C19.177 34.6976 19.0897 34.8087 18.8104 34.9076C17.7247 35.29 16.3763 35.747 15.5749 36.0068C15.411 36.0597 15.3556 36.1593 15.3875 36.3412C15.4448 36.6725 15.6297 37.7971 15.7005 38.1252C15.7266 38.2465 15.8235 38.3429 16.0033 38.3084C16.477 38.2184 17.7381 37.9095 17.7381 37.9095C17.7381 37.9095 17.3664 38.2535 17.1439 38.4565C17.1031 38.4948 17.0559 38.5229 17.003 38.5401C16.6594 38.655 15.8204 38.8905 15.559 38.948C15.3549 38.992 15.2249 38.9116 15.1726 38.6805C15.1726 38.6805 14.8149 37.1563 14.6855 36.638C14.6651 36.5589 14.6447 36.4906 14.6199 36.4127C14.5229 36.1127 14.2902 35.5229 14.1589 35.214C14.1436 35.1783 14.136 35.14 14.1366 35.1004C14.1404 34.7474 14.2054 33.9598 14.2054 33.9598C14.2054 33.9598 14.9775 34.6842 15.3511 34.9459C15.4353 35.0053 15.4856 35.0174 15.5889 34.9912C16.1021 34.8591 17.2822 34.4685 17.93 34.2259C18.0779 34.1704 18.2073 34.0772 18.3081 33.9553C18.9781 33.1453 19.8184 31.8853 20.3036 30.9349C20.3705 30.8041 20.3833 30.6541 20.3412 30.5137L20.2366 30.169C20.206 30.0681 20.0996 29.9545 20.0014 29.9169C18.8595 29.4822 17.9593 29.1592 16.9016 28.7986L17.0279 28.7584ZM39.6102 18.9481C39.8613 18.8555 40.1368 18.8619 40.3835 18.966C42.2974 19.7702 45.5157 21.6621 47.3047 22.9948C47.4775 23.1238 47.5463 23.2125 47.5916 23.4206C48.0117 25.3329 48.1711 28.2888 47.9065 30.7775C47.8874 30.9562 47.8517 31.0634 47.7586 31.2543C46.6251 33.5744 45.3493 35.758 44.0067 37.4425L44.0094 37.4149C44.0268 37.2355 44.1232 36.2241 44.1284 35.6769C44.1291 35.615 44.1578 35.5582 44.2069 35.5206C44.4561 35.3265 44.7985 35.0508 44.9923 34.8829C45.0867 34.8012 45.1389 34.7399 45.188 34.6608C45.735 33.7761 46.713 31.9238 47.107 30.8094C47.2033 30.5375 47.2416 30.2496 47.218 29.9617C47.0917 28.4088 46.8482 26.2571 46.4854 24.8529C46.4236 24.6135 46.2655 24.4112 46.0455 24.2982C45.7325 24.1374 45.1185 23.8572 43.7204 23.2961C43.5266 23.2182 43.3455 23.1104 43.1861 22.9763C42.2694 22.2053 40.8362 21.0493 39.9442 20.3842C39.6835 20.1896 39.3507 20.1187 39.0332 20.1908C38.3835 20.3383 37.5566 20.5438 37.0912 20.6702C36.9331 20.7129 36.8706 20.7168 36.7074 20.6976C36.6224 20.6878 36.5126 20.677 36.3972 20.6665L36.2223 20.6511C36.0191 20.6337 35.8284 20.619 35.7537 20.6133L35.7205 20.6108C37.2372 19.8979 38.6966 19.2825 39.6102 18.9481ZM19.3743 31.5004C18.9 32.2816 18.3332 33.1114 17.9048 33.6297C17.8487 33.6974 17.7741 33.7497 17.6893 33.7816C17.2207 33.9571 16.4397 34.2214 15.8647 34.3969L19.3743 31.5004ZM13.1054 30.4747L12.8255 32.408L11.8736 31.2897C12.047 30.9138 12.5539 30.5589 13.1054 30.4747ZM18.2324 19.5288L17.9723 19.8492C17.9577 19.8633 17.9436 19.8767 17.929 19.8913C17.7001 20.0605 16.7368 20.799 16.476 21.0058C16.402 21.0645 16.3727 21.1156 16.3555 21.2081C16.2969 21.5349 16.1993 22.156 16.1706 22.5C16.1623 22.6009 16.119 22.6507 16.0163 22.6922C15.5694 22.8741 15.0396 23.0655 14.6112 23.2372C14.5194 23.2736 14.4939 23.2877 14.4397 23.3292C14.397 23.3624 13.8276 23.8711 13.8276 23.8711C13.8276 23.8711 15.0651 23.566 15.519 23.4632C15.6274 23.4389 15.674 23.4453 15.7741 23.4926C15.8678 23.536 16.024 23.5979 16.1062 23.6279C16.2325 23.6745 16.2994 23.6726 16.439 23.6419C16.9503 23.5277 17.8104 23.3234 18.2681 23.2041C18.5059 23.1421 18.636 23.0777 18.8375 22.9366C19.0568 22.7841 19.6121 22.3673 19.6121 22.3673C19.6121 22.3673 19.6019 22.4407 19.5942 22.4815C19.5885 22.5166 19.5757 22.5364 19.5528 22.5639C19.4399 22.6998 19.2423 22.9213 19.1441 23.0228C18.9191 23.2558 18.7846 23.3387 18.5021 23.4568C17.2015 23.9994 14.979 24.8419 13.3119 25.4196C13.2028 25.4578 13.1557 25.4891 13.0747 25.5721C12.9867 25.6615 12.8694 25.7917 12.8694 25.7917C12.8694 25.7917 14.2287 25.8906 14.6437 25.9385C14.7782 25.9538 14.8745 25.9978 14.9771 26.0866C15.3182 26.3802 16.4473 27.5438 16.7852 27.9478C16.7852 27.9478 13.5752 28.4821 12.0878 28.8516C11.9042 28.8969 11.8124 29.0137 11.7709 29.1612C11.6479 29.5939 11.3578 30.9854 11.3578 30.9854C11.3578 30.9854 11.2545 30.9522 11.1104 30.8692C11.0116 30.8124 10.9612 30.7652 10.8529 30.6503C10.5009 30.2782 9.92268 29.5659 9.64471 29.1529C9.5631 29.031 9.52867 28.8759 9.63068 28.7514C9.93224 28.3799 10.5379 27.7021 10.872 27.3536C10.9077 27.3159 10.953 27.2502 11.0008 27.1557C11.1132 26.9322 11.2614 26.3661 11.313 26.1617L11.3295 26.0955L11.3317 26.0866C11.3317 26.0866 11.3285 26.0886 11.3227 26.0922L11.2617 26.1306C11.179 26.1827 11.0454 26.2668 10.988 26.3029C10.9019 26.3578 10.8784 26.3814 10.8427 26.4568C10.7885 26.5704 10.6935 26.7497 10.6214 26.8742C10.5978 26.9151 10.5347 26.9782 10.5009 27.0044C10.0744 27.3306 9.60327 27.681 9.26792 27.9172C9.24497 27.9331 9.21564 27.9261 9.19588 27.907C9.15316 27.8642 8.97401 27.6606 8.94213 27.6127C8.91536 27.5725 8.90321 27.5348 8.90321 27.4863C8.9026 27.4014 8.91089 27.2521 8.91918 27.141C8.92938 27.0095 8.967 26.947 9.12702 26.781C9.30617 26.5953 9.50126 26.4 9.70655 26.1995C10.2096 25.7757 11.4796 24.7442 13.7473 23.1243C13.79 23.0936 13.8289 23.0579 13.8602 23.0151C14.0986 22.6934 14.775 21.8151 14.9421 21.6064C14.9657 21.5771 14.9918 21.5496 15.0218 21.526C15.2889 21.3147 15.4209 21.2235 15.6918 21.0524C16.3236 20.6541 17.5471 19.9277 18.2324 19.5288ZM32.0545 18.8104C32.1495 18.7938 32.2471 18.8072 32.3344 18.8487L32.9968 19.1659C33.0619 19.1972 33.1097 19.2566 33.1269 19.3281C33.2168 19.7072 33.3271 20.2095 33.401 20.6365C33.431 20.814 33.3979 20.9953 33.308 21.1516C33.0338 21.6284 32.4709 22.4863 32.1559 22.9471C32.0858 23.0505 32.0775 23.1757 32.0992 23.2988C32.242 24.089 32.8374 26.8484 32.8374 26.8484L32.4626 26.5069C32.388 26.4379 32.3389 26.3652 32.307 26.2701C32.0405 25.4894 31.542 23.8586 31.3124 23.0652C31.2755 22.9344 31.3035 22.7946 31.3896 22.6906C31.7804 22.2157 32.3497 21.4561 32.6825 20.9748C32.7756 20.8395 32.8062 20.6902 32.7514 20.5785C32.6749 20.4214 32.5461 20.1827 32.4224 19.9663C32.3893 19.9063 32.3338 19.8617 32.2681 19.84L31.8187 19.6957C31.7402 19.6708 31.6561 19.6721 31.5783 19.7002C30.599 20.0557 29.2819 20.5683 28.476 20.9027C28.3581 20.9519 28.3096 20.9557 28.1668 20.934C27.9335 20.8995 27.2538 20.7776 26.9204 20.7151C26.8605 20.7036 26.8305 20.6359 26.8611 20.5829L27.2564 19.8974C27.3099 19.8049 27.3986 19.7391 27.5031 19.7155C28.7744 19.4257 30.4556 19.0925 32.0545 18.8104ZM17.987 21.9586C18.0476 21.9535 18.1049 21.9873 18.1285 22.0428C18.2082 22.2286 18.1865 22.436 18.1094 22.6135C18.0794 22.6856 17.987 22.7558 17.9111 22.7724L17.2768 22.9134C17.2385 22.9217 17.2034 22.8911 17.206 22.8522L17.2653 22.1067C17.2697 22.0562 17.3093 22.016 17.3596 22.0122L17.987 21.9586ZM25.205 17.1683C25.2783 17.1677 25.3242 17.2468 25.2879 17.31L23.7412 19.9761C23.6551 20.1331 23.5111 20.2499 23.3402 20.3016L20.44 21.2099C20.1034 21.312 19.819 21.3669 19.4684 21.3937C18.8251 21.4423 16.9144 21.5023 16.9144 21.5023L16.9565 21.4116C16.9762 21.3689 17.0113 21.335 17.0546 21.3165L17.9587 20.9323C18.0263 20.9035 18.0855 20.8595 18.1308 20.8027L19.527 19.0819C19.6016 18.99 19.6992 18.9019 19.8031 18.847C20.7256 18.3612 22.366 17.6317 23.5149 17.2474C23.6233 17.2111 23.7693 17.1881 23.8834 17.1868L25.205 17.1683ZM23.6545 14.0722C26.855 13.7907 31.1858 13.7141 35.3229 14.0275C35.5581 14.0454 35.787 14.1009 36.0044 14.1929C37.3598 14.7635 39.7646 16.012 42.4385 17.5432C42.5564 17.6109 42.6674 17.69 42.7694 17.78C43.4777 18.4049 45.2724 20.2432 45.2724 20.2432L44.7126 20.1321C44.6342 20.1168 44.5609 20.0862 44.4946 20.0415C43.3623 19.28 41.7091 18.2887 40.3238 17.5898C40.1593 17.5075 39.9814 17.4545 39.7984 17.4353C39.1245 17.3632 38.2135 17.3 37.6174 17.2758C37.3235 17.2636 37.1233 17.2145 36.8357 17.0683C36.2862 16.7894 34.955 16.1849 34.2919 15.9315C34.0082 15.823 33.8635 15.7975 33.5855 15.802C32.4463 15.8186 29.8508 15.9015 28.5253 15.9839C28.4794 15.9864 28.4355 15.9845 28.3908 15.9775L27.759 15.8786C29.5505 15.5696 33.9789 15.1745 35.8119 15.0782L35.0659 14.8286C34.9218 14.7807 34.772 14.7552 34.6196 14.7514C34.2217 14.7419 33.3369 14.7242 32.1883 14.7226L31.7959 14.7227C30.0562 14.7261 27.8178 14.7688 25.7533 14.9243C25.5729 14.9377 25.3969 14.9811 25.2312 15.0545C24.3972 15.4212 22.3638 16.525 20.3243 17.6588L19.8715 17.911C19.3443 18.2051 18.8226 18.4976 18.3272 18.7764C18.3272 18.7764 18.5816 18.4489 18.6306 18.3851C18.674 18.3296 18.6874 18.3194 18.746 18.2811C18.828 18.2273 19.1078 18.0428 19.3899 17.8556L19.5988 17.7166C19.7682 17.6038 19.9193 17.5024 20.0046 17.4436C20.0466 17.4149 20.0734 17.3945 20.1263 17.3549C20.7403 16.8915 21.7094 16.0745 22.287 15.5684C22.4177 15.4541 22.5286 15.3213 22.6198 15.1733C22.8066 14.8707 23.0106 14.5426 23.1362 14.3607C23.2433 14.2031 23.4263 14.0926 23.6545 14.0722ZM10.0254 6.71028C10.8159 6.62858 11.2578 6.93623 11.2578 7.73728V8.18025C11.2578 8.99981 10.8159 9.33108 10.0254 9.41342C8.932 9.52768 7.83861 9.6515 6.74713 9.78554V10.9964C6.51825 11.0245 6.28873 11.0525 6.05985 11.0819V7.16857C7.38021 7.00134 8.70184 6.84878 10.0254 6.71028ZM46.717 6.58339C48.46 6.75317 50.2018 6.94848 51.9404 7.16806V7.79932C51.1887 7.70422 50.4358 7.61358 49.6822 7.52805V10.8108C49.4533 10.7846 49.2245 10.7591 48.9943 10.7335V7.45082C48.2363 7.3672 47.4763 7.28869 46.717 7.21465V6.58339ZM17.761 6.06905V6.69968C16.3271 6.7884 14.8939 6.89372 13.462 7.01563V7.97945C14.7358 7.8703 16.0103 7.77519 17.2854 7.69349V8.32476C16.0103 8.40646 14.7358 8.50156 13.462 8.61007V9.66772C14.8939 9.54516 16.3271 9.43985 17.761 9.35176V9.98239C16.1027 10.0845 14.4457 10.2096 12.7894 10.3571V6.44309C14.4457 6.29565 16.1027 6.17118 17.761 6.06905ZM40.0617 7.14106C40.0617 6.26341 40.4965 6.08278 41.4764 6.14916C42.3371 6.20852 43.1965 6.27299 44.0566 6.34447C44.9077 6.41469 45.4694 6.65404 45.4694 7.54956V9.29719C45.4694 10.1761 44.9842 10.3344 44.0566 10.2578C43.1965 10.187 42.3371 10.1219 41.4764 10.0631C40.5392 9.99994 40.0617 9.81867 40.0617 8.88869V7.14106ZM33.3936 5.77602C35.0537 5.81559 36.7133 5.87814 38.3728 5.96367V6.5943C36.9383 6.5209 35.5032 6.46409 34.0675 6.42452V7.38769C35.3445 7.42343 36.6208 7.47194 37.8966 7.53386V8.16512C36.6208 8.10321 35.3445 8.05406 34.0675 8.01896V9.07596C35.5032 9.11553 36.9383 9.17234 38.3728 9.24638V9.87701C36.7133 9.79212 35.0537 9.72956 33.3936 9.68935V5.77602ZM24.7549 5.77257V8.60337C24.7549 9.49889 24.285 9.69548 23.3383 9.72484C22.5139 9.75037 21.6896 9.78101 20.8652 9.81803C19.9867 9.85761 19.4499 9.69037 19.4499 8.80379V5.97299L20.1231 5.93852V8.88869C20.1231 9.06804 20.2768 9.21421 20.4808 9.20464C21.5614 9.15421 22.6414 9.11336 23.7221 9.08209C23.9274 9.07634 24.0638 8.91932 24.0638 8.73996V5.7898C24.294 5.78342 24.5241 5.77768 24.7549 5.77257ZM41.0933 6.75489C40.8886 6.74085 40.735 6.88446 40.735 7.08936V9.02464C40.735 9.204 40.8886 9.39229 41.0933 9.40634C42.2096 9.48038 43.3247 9.56463 44.4397 9.6591C44.6183 9.67442 44.7968 9.51038 44.7968 9.33166V7.39573C44.7968 7.19148 44.6183 7.02233 44.4397 7.00702C43.3247 6.91255 42.2096 6.8283 41.0933 6.75489ZM27.7321 5.72763C28.9695 5.7187 30.207 5.72317 31.4438 5.73976V6.37039C30.1216 6.35315 28.7987 6.34932 27.4758 6.36018C27.2966 6.36209 27.1175 6.51719 27.1175 6.69655V8.65737C27.1175 8.83673 27.2966 9.01417 27.4758 9.01226C28.6622 9.00205 29.8481 9.00396 31.0345 9.01736V7.95972C30.346 7.95206 29.6574 7.94823 28.9695 7.94887V7.31761C29.8825 7.31761 30.7955 7.32463 31.7084 7.33803V9.65693C30.4257 9.63778 29.1429 9.63267 27.8602 9.64033C26.9211 9.64672 26.4436 9.48459 26.4436 8.57184V6.86634C26.4436 6.01422 26.8701 5.73402 27.7321 5.72763ZM10.2826 7.31943L10.2294 7.32048C9.06779 7.44048 7.90682 7.57133 6.74713 7.71366V9.15428C7.90682 9.01258 9.06779 8.88109 10.2294 8.76173C10.4073 8.74258 10.5858 8.57982 10.5858 8.4094V7.61664C10.5858 7.43728 10.4073 7.30197 10.2294 7.32048L10.2826 7.31943Z" fill="#010038"/>
</svg>
