<svg width="46" height="59" viewBox="0 0 46 59" fill="none" xmlns="http://www.w3.org/2000/svg">
<path d="M20.7888 0.509959C20.0342 1.91981 9.86277 20.9475 5.48137 29.1228C5.32952 29.4054 5.34121 29.6098 5.48955 29.8867C9.78217 37.8972 18.4819 54.1473 18.5718 54.2991C18.6618 54.1484 27.3615 37.8972 31.6541 29.8878C31.8024 29.611 31.8153 29.4066 31.6623 29.1239C29.2059 24.5556 26.7658 19.978 24.3093 15.4097C24.1517 15.1177 24.1411 14.8993 24.3047 14.6049C24.9798 13.3878 25.6269 12.1555 26.3114 10.8777C26.4083 11.0424 32.9179 23.1937 36.1103 29.1473C36.2446 29.3973 36.2563 29.5841 36.1184 29.8423C31.0666 39.2697 26.0229 48.7018 20.985 58.1374C20.8507 58.3897 20.7141 58.5041 20.408 58.4995C19.1605 58.4784 17.9119 58.4843 16.6644 58.496C16.4331 58.4983 16.3105 58.4247 16.2018 58.2191C11.1383 48.7368 6.07008 39.2568 0.996021 29.7804C0.890896 29.583 0.881551 29.4358 0.990181 29.2314C6.0654 19.7526 11.1325 10.2726 16.2077 0.796134C16.2719 0.676992 16.4226 0.523975 16.5347 0.522807C17.9271 0.50295 19.3194 0.509959 20.7888 0.509959Z" fill="#010038"/>
<path d="M26.5592 6.31511C24.2371 10.6428 17.8361 22.599 14.3471 29.111C14.1988 29.389 14.1883 29.5934 14.3401 29.8749C16.7965 34.4444 19.2366 39.0208 21.693 43.5891C21.8507 43.8823 21.8589 44.0995 21.6954 44.3939C21.0202 45.611 20.3731 46.8433 19.6875 48.1223C19.5964 47.9682 13.0879 35.8157 9.88863 29.8504C9.7543 29.6004 9.74379 29.4135 9.88162 29.1554C14.9323 19.7291 19.976 10.297 25.0138 0.861436C25.1493 0.607967 25.2872 0.495834 25.5909 0.500506C26.8384 0.521531 28.087 0.515691 29.3345 0.50401C29.5669 0.501674 29.6873 0.577598 29.7971 0.782008C34.8618 10.2643 39.93 19.7443 45.004 29.2208C45.1103 29.4182 45.1173 29.5665 45.0087 29.7698C39.9347 39.2462 34.8676 48.7262 29.7924 58.2027C29.7281 58.3218 29.5775 58.4737 29.4653 58.4749C28.073 58.4936 26.6807 58.4865 25.2218 58.4865C25.3175 58.2997 35.4937 39.2544 40.5198 29.8737C40.6717 29.5911 40.66 29.3866 40.5105 29.1098C36.2179 21.0993 27.5182 4.8492 27.4282 4.69852C27.4119 4.72655 27.093 5.31876 26.5592 6.31511Z" fill="#010038"/>
</svg>
