<svg width="65" height="43" viewBox="0 0 65 43" fill="none" xmlns="http://www.w3.org/2000/svg">
<path d="M32.1999 0.795959C14.5281 0.795959 0.199707 10.065 0.199707 21.4958C0.199707 32.9308 14.5281 42.2041 32.1999 42.2041C49.8718 42.2041 64.2002 32.935 64.2002 21.4958C64.2002 10.0566 49.8718 0.795959 32.1999 0.795959ZM32.1999 33.3177C29.5715 33.3177 27.4266 28.1406 27.292 21.6262C28.8733 21.765 30.5177 21.8407 32.1999 21.8407C33.8822 21.8407 35.5266 21.765 37.1079 21.6262C36.9733 28.1364 34.8284 33.3177 32.1999 33.3177ZM27.6159 16.4533C28.3308 11.8482 30.114 8.58048 32.1999 8.58048C34.2859 8.58048 36.0691 11.8482 36.784 16.4533C35.3163 16.5837 33.7854 16.6552 32.1999 16.6552C30.6144 16.6552 29.0836 16.5837 27.6159 16.4533ZM32.1999 3.79033C28.7682 3.79033 25.8411 8.92955 24.7603 16.1043C18.2542 15.0907 13.7122 12.7776 13.7122 10.0903C13.7122 6.46508 21.9888 3.52538 32.1999 3.52538C42.4111 3.52538 50.6877 6.46508 50.6877 10.0903C50.6877 12.7776 46.1456 15.0907 39.6396 16.1043C38.5588 8.92955 35.6317 3.79033 32.1999 3.79033ZM4.78799 20.722C4.78799 17.2145 6.13798 13.9216 8.4889 11.0954C8.46367 11.2931 8.44684 11.4949 8.44684 11.6968C8.44684 16.1169 15.0748 19.8851 24.3229 21.2729C24.3145 21.5925 24.3145 21.9164 24.3145 22.2402C24.3145 30.4789 26.6233 37.456 29.8154 39.8237C15.7898 38.9784 4.78799 30.7481 4.78799 20.722ZM34.5845 39.8237C37.7765 37.456 40.0854 30.4789 40.0854 22.2402C40.0854 21.9122 40.0812 21.5925 40.077 21.2729C49.3208 19.8851 55.953 16.1211 55.953 11.6968C55.953 11.4949 55.9362 11.2931 55.911 11.0954C58.2619 13.93 59.6119 17.2145 59.6119 20.722C59.6119 30.7481 48.6101 38.9784 34.5845 39.8237Z" fill="#010038"/>
</svg>
